<svg width="3151" height="913" xmlns="http://www.w3.org/2000/svg" xmlns:xlink="http://www.w3.org/1999/xlink" xml:space="preserve" overflow="hidden"><defs><clipPath id="clip0"><rect x="1060" y="47" width="3151" height="913"/></clipPath></defs><g clip-path="url(#clip0)" transform="translate(-1060 -47)"><path d="M1062.5 579.167C1062.5 537.377 1096.38 503.5 1138.17 503.5L4132.83 503.5C4174.62 503.5 4208.5 537.377 4208.5 579.167L4208.5 881.833C4208.5 923.622 4174.62 957.5 4132.83 957.5L1138.17 957.5C1096.38 957.5 1062.5 923.622 1062.5 881.833Z" stroke="#2F528F" stroke-width="4.58333" stroke-miterlimit="8" fill="#F8CBAD" fill-rule="evenodd"/><path d="M1062.5 125.167C1062.5 83.3774 1096.38 49.5 1138.17 49.5L4132.83 49.5C4174.62 49.5 4208.5 83.3774 4208.5 125.167L4208.5 427.833C4208.5 469.623 4174.62 503.5 4132.83 503.5L1138.17 503.5C1096.38 503.5 1062.5 469.623 1062.5 427.833Z" stroke="#2F528F" stroke-width="4.58333" stroke-miterlimit="8" fill="#C5E0B4" fill-rule="evenodd"/><path d="M2182.5 166.501C2182.5 136.125 2207.12 111.5 2237.5 111.5L2486.5 111.5C2516.88 111.5 2541.5 136.125 2541.5 166.501L2541.5 386.499C2541.5 416.875 2516.88 441.5 2486.5 441.5L2237.5 441.5C2207.12 441.5 2182.5 416.875 2182.5 386.499Z" stroke="#2F528F" stroke-width="4.58333" stroke-miterlimit="8" fill="#4472C4" fill-rule="evenodd"/><text fill="#FFFFFF" font-family="Calibri,Calibri_MSFontService,sans-serif" font-weight="400" font-size="55" transform="matrix(1 0 0 1 2262.56 261)">Live data</text><text fill="#FFFFFF" font-family="Calibri,Calibri_MSFontService,sans-serif" font-weight="400" font-size="55" transform="matrix(1 0 0 1 2282.91 327)">@ceph</text><path d="M3009.5 166.501C3009.5 136.125 3034.12 111.5 3064.5 111.5L3313.5 111.5C3343.88 111.5 3368.5 136.125 3368.5 166.501L3368.5 386.499C3368.5 416.875 3343.88 441.5 3313.5 441.5L3064.5 441.5C3034.12 441.5 3009.5 416.875 3009.5 386.499Z" stroke="#2F528F" stroke-width="4.58333" stroke-miterlimit="8" fill="#4472C4" fill-rule="evenodd"/><text fill="#FFFFFF" font-family="Calibri,Calibri_MSFontService,sans-serif" font-weight="400" font-size="55" transform="matrix(1 0 0 1 3142.95 195)">Pre</text><text fill="#FFFFFF" font-family="Calibri,Calibri_MSFontService,sans-serif" font-weight="400" font-size="55" transform="matrix(1 0 0 1 3217.27 195)">-</text><text fill="#FFFFFF" font-family="Calibri,Calibri_MSFontService,sans-serif" font-weight="400" font-size="55" transform="matrix(1 0 0 1 3075.14 261)">Processed</text><text fill="#FFFFFF" font-family="Calibri,Calibri_MSFontService,sans-serif" font-weight="400" font-size="55" transform="matrix(1 0 0 1 3139.14 327)">data</text><text fill="#FFFFFF" font-family="Calibri,Calibri_MSFontService,sans-serif" font-weight="400" font-size="55" transform="matrix(1 0 0 1 3135.71 393)">@eb</text><path d="M3009.5 620.501C3009.5 590.125 3034.12 565.5 3064.5 565.5L3313.5 565.5C3343.88 565.5 3368.5 590.125 3368.5 620.501L3368.5 840.499C3368.5 870.875 3343.88 895.5 3313.5 895.5L3064.5 895.5C3034.12 895.5 3009.5 870.875 3009.5 840.499Z" stroke="#2F528F" stroke-width="4.58333" stroke-miterlimit="8" fill="#4472C4" fill-rule="evenodd"/><text fill="#FFFFFF" font-family="Calibri,Calibri_MSFontService,sans-serif" font-weight="400" font-size="55" transform="matrix(1 0 0 1 3075.14 649)">Processed</text><text fill="#FFFFFF" font-family="Calibri,Calibri_MSFontService,sans-serif" font-weight="400" font-size="55" transform="matrix(1 0 0 1 3139.14 715)">data</text><text fill="#FFFFFF" font-family="Calibri,Calibri_MSFontService,sans-serif" font-weight="400" font-size="55" transform="matrix(1 0 0 1 3064.96 781)">@dataman</text><text fill="#FFFFFF" font-family="Calibri,Calibri_MSFontService,sans-serif" font-weight="400" font-size="55" transform="matrix(1 0 0 1 3139.37 847)">ager</text><path d="M2541.5 222.75 2897 222.75 2897 168.5 3005.5 277 2897 385.5 2897 331.25 2541.5 331.25Z" stroke="#AE5A21" stroke-width="4.58333" stroke-miterlimit="8" fill="#ED7D31" fill-rule="evenodd"/><text fill="#FFFFFF" font-family="Calibri,Calibri_MSFontService,sans-serif" font-weight="400" font-size="83" transform="matrix(1 0 0 1 2586.88 304)">bootstrax</text><path d="M2541.5 676.75 2897 676.75 2897 622.5 3005.5 731 2897 839.5 2897 785.25 2541.5 785.25Z" stroke="#AE5A21" stroke-width="4.58333" stroke-miterlimit="8" fill="#ED7D31" fill-rule="evenodd"/><text fill="#FFFFFF" font-family="Calibri,Calibri_MSFontService,sans-serif" font-weight="400" font-size="83" transform="matrix(1 0 0 1 2644.2 758)">admix</text><path d="M3372.5 222.75 3673 222.75 3673 168.5 3781.5 277 3673 385.5 3673 331.25 3372.5 331.25Z" stroke="#AE5A21" stroke-width="4.58333" stroke-miterlimit="8" fill="#ED7D31" fill-rule="evenodd"/><text fill="#FFFFFF" font-family="Calibri,Calibri_MSFontService,sans-serif" font-weight="400" font-size="83" transform="matrix(1 0 0 1 3434.85 304)">restrax</text><path d="M3785.5 166.501C3785.5 136.125 3810.12 111.5 3840.5 111.5L4089.5 111.5C4119.88 111.5 4144.5 136.125 4144.5 166.501L4144.5 386.499C4144.5 416.875 4119.88 441.5 4089.5 441.5L3840.5 441.5C3810.12 441.5 3785.5 416.875 3785.5 386.499Z" stroke="#2F528F" stroke-width="4.58333" stroke-miterlimit="8" fill="#4472C4" fill-rule="evenodd"/><text fill="#FFFFFF" font-family="Calibri,Calibri_MSFontService,sans-serif" font-weight="400" font-size="55" transform="matrix(1 0 0 1 3850.98 228)">Processed</text><text fill="#FFFFFF" font-family="Calibri,Calibri_MSFontService,sans-serif" font-weight="400" font-size="55" transform="matrix(1 0 0 1 3914.99 294)">data</text><text fill="#FFFFFF" font-family="Calibri,Calibri_MSFontService,sans-serif" font-weight="400" font-size="55" transform="matrix(1 0 0 1 3911.55 360)">@eb</text><path d="M3372.5 676.75 3677 676.75 3677 622.5 3785.5 731 3677 839.5 3677 785.25 3372.5 785.25Z" stroke="#AE5A21" stroke-width="4.58333" stroke-miterlimit="8" fill="#ED7D31" fill-rule="evenodd"/><text fill="#FFFFFF" font-family="Calibri,Calibri_MSFontService,sans-serif" font-weight="400" font-size="83" transform="matrix(1 0 0 1 3466.45 758)">rucio</text><path d="M1461.5 166.501C1461.5 136.125 1486.12 111.5 1516.5 111.5L1764.5 111.5C1794.88 111.5 1819.5 136.125 1819.5 166.501L1819.5 386.499C1819.5 416.875 1794.88 441.5 1764.5 441.5L1516.5 441.5C1486.12 441.5 1461.5 416.875 1461.5 386.499Z" stroke="#507E32" stroke-width="4.58333" stroke-miterlimit="8" fill="#70AD47" fill-rule="evenodd"/><text fill="#FFFFFF" font-family="Calibri,Calibri_MSFontService,sans-serif" font-weight="400" font-size="55" transform="matrix(1 0 0 1 1538.2 294)">Digitizers</text><path d="M1821.5 222.75 2072 222.75 2072 168.5 2180.5 277 2072 385.5 2072 331.25 1821.5 331.25Z" stroke="#AE5A21" stroke-width="4.58333" stroke-miterlimit="8" fill="#ED7D31" fill-rule="evenodd"/><text fill="#FFFFFF" font-family="Calibri,Calibri_MSFontService,sans-serif" font-weight="400" font-size="83" transform="matrix(1 0 0 1 1880.14 304)">redax</text><path d="M1120 112.501C1120 92.8941 1135.89 77 1155.5 77L1297.5 77C1317.11 77 1333 92.8941 1333 112.501L1333 439.5C1333 459.106 1317.11 475 1297.5 475L1155.5 475C1135.89 475 1120 459.106 1120 439.5Z" fill="#C5E0B4" fill-rule="evenodd"/><text font-family="Calibri,Calibri_MSFontService,sans-serif" font-weight="400" font-size="83" transform="matrix(6.12323e-17 -1 1 6.12323e-17 1254.11 352)">DAQ</text><path d="M1120 566.501C1120 546.894 1135.89 531 1155.5 531L1297.5 531C1317.11 531 1333 546.894 1333 566.501L1333 893.5C1333 913.106 1317.11 929 1297.5 929L1155.5 929C1135.89 929 1120 913.106 1120 893.5Z" fill="#F8CBAD" fill-rule="evenodd"/><text font-family="Calibri,Calibri_MSFontService,sans-serif" font-weight="400" font-size="83" transform="matrix(6.12323e-17 -1 1 6.12323e-17 1204.61 821)">Data</text><text font-family="Calibri,Calibri_MSFontService,sans-serif" font-weight="400" font-size="83" transform="matrix(6.12323e-17 -1 1 6.12323e-17 1204.61 665)">-</text><text font-family="Calibri,Calibri_MSFontService,sans-serif" font-weight="400" font-size="83" transform="matrix(6.12323e-17 -1 1 6.12323e-17 1303.61 879)">manager</text></g></svg>
